HIERARCHY
ROOT Hips
{
    OFFSET   0.000000   0.000000   0.000000
    CHANNELS 6 Xposition Yposition Zposition Zrotation Xrotation Yrotation
    JOINT Chest
    {
        OFFSET   0.000000   8.007230   0.000000
        CHANNELS 3 Zrotation Xrotation Yrotation
        JOINT Chest2
        {
            OFFSET   0.000000  22.077100   0.000000
            CHANNELS 3 Zrotation Xrotation Yrotation
            JOINT Neck
            {
                OFFSET   0.000000  23.255100   0.000000
                CHANNELS 3 Zrotation Xrotation Yrotation
                JOINT Head
                {
                    OFFSET   0.000000  14.370100   1.956600
                    CHANNELS 3 Zrotation Xrotation Yrotation
                    End Site
                    {
                        OFFSET   0.000000  19.566000   0.000000
                    }
                }
            }
            JOINT LeftCollar
            {
                OFFSET   3.911900  19.017000  -0.467063
                CHANNELS 3 Zrotation Xrotation Yrotation
                JOINT LeftShoulder
                {
                    OFFSET  10.383700   0.000000   0.000000
                    CHANNELS 3 Zrotation Xrotation Yrotation
                    JOINT LeftElbow
                    {
                        OFFSET  26.662100   0.001193   0.000980
                        CHANNELS 3 Zrotation Xrotation Yrotation
                        JOINT LeftWrist
                        {
                            OFFSET  28.869000  -0.000059  -0.000082
                            CHANNELS 3 Zrotation Xrotation Yrotation
                            JOINT LeftFinger0
                            {
                                OFFSET   2.044650  -2.323450   3.252850
                                CHANNELS 3 Zrotation Xrotation Yrotation
                                JOINT LeftFinger01
                                {
                                    OFFSET   3.088130   0.000000   0.000000
                                    CHANNELS 3 Zrotation Xrotation Yrotation
                                    JOINT LeftFinger02
                                    {
                                        OFFSET   2.639460   0.000000   0.000000
                                        CHANNELS 3 Zrotation Xrotation Yrotation
                                        End Site
                                        {
                                            OFFSET   2.582190   0.000000   0.000000
                                        }
                                    }
                                }
                            }
                            JOINT LeftFinger1
                            {
                                OFFSET   8.364480   0.000000   3.252850
                                CHANNELS 3 Zrotation Xrotation Yrotation
                                JOINT LeftFinger11
                                {
                                    OFFSET   4.646930   0.000000   0.000000
                                    CHANNELS 3 Zrotation Xrotation Yrotation
                                    JOINT LeftFinger12
                                    {
                                        OFFSET   2.323470   0.000000   0.000000
                                        CHANNELS 3 Zrotation Xrotation Yrotation
                                        End Site
                                        {
                                            OFFSET   2.273050   0.000000   0.000000
                                        }
                                    }
                                }
                            }
                            JOINT LeftFinger2
                            {
                                OFFSET   8.364490   0.000016   1.078090
                                CHANNELS 3 Zrotation Xrotation Yrotation
                                JOINT LeftFinger21
                                {
                                    OFFSET   5.111610   0.000000   0.000000
                                    CHANNELS 3 Zrotation Xrotation Yrotation
                                    JOINT LeftFinger22
                                    {
                                        OFFSET   2.788150   0.000016   0.000000
                                        CHANNELS 3 Zrotation Xrotation Yrotation
                                        End Site
                                        {
                                            OFFSET   2.727660   0.000000   0.000000
                                        }
                                    }
                                }
                            }
                            JOINT LeftFinger3
                            {
                                OFFSET   7.899780   0.000015  -1.078090
                                CHANNELS 3 Zrotation Xrotation Yrotation
                                JOINT LeftFinger31
                                {
                                    OFFSET   4.646930   0.000000   0.000000
                                    CHANNELS 3 Zrotation Xrotation Yrotation
                                    JOINT LeftFinger32
                                    {
                                        OFFSET   2.323470   0.000000   0.000000
                                        CHANNELS 3 Zrotation Xrotation Yrotation
                                        End Site
                                        {
                                            OFFSET   2.273050   0.000000   0.000000
                                        }
                                    }
                                }
                            }
                            JOINT LeftFinger4
                            {
                                OFFSET   7.435090   0.000000  -3.252850
                                CHANNELS 3 Zrotation Xrotation Yrotation
                                JOINT LeftFinger41
                                {
                                    OFFSET   3.717550   0.000000   0.000000
                                    CHANNELS 3 Zrotation Xrotation Yrotation
                                    JOINT LeftFinger42
                                    {
                                        OFFSET   1.858770   0.000000   0.000000
                                        CHANNELS 3 Zrotation Xrotation Yrotation
                                        End Site
                                        {
                                            OFFSET   1.818440   0.000000   0.000000
                                        }
                                    }
                                }
                            }
                        }
                    }
                }
            }
            JOINT RightCollar
            {
                OFFSET  -3.911910  19.017000  -0.467062
                CHANNELS 3 Zrotation Xrotation Yrotation
                JOINT RightShoulder
                {
                    OFFSET -10.383700   0.000014   0.000000
                    CHANNELS 3 Zrotation Xrotation Yrotation
                    JOINT RightElbow
                    {
                        OFFSET -26.662100   0.001225   0.001091
                        CHANNELS 3 Zrotation Xrotation Yrotation
                        JOINT RightWrist
                        {
                            OFFSET -28.869000  -0.000020  -0.000085
                            CHANNELS 3 Zrotation Xrotation Yrotation
                            JOINT RightFinger0
                            {
                                OFFSET  -2.044650  -2.323490   3.252850
                                CHANNELS 3 Zrotation Xrotation Yrotation
                                JOINT RightFinger01
                                {
                                    OFFSET  -3.088130   0.000000   0.000000
                                    CHANNELS 3 Zrotation Xrotation Yrotation
                                    JOINT RightFinger02
                                    {
                                        OFFSET  -2.639460   0.000000   0.000000
                                        CHANNELS 3 Zrotation Xrotation Yrotation
                                        End Site
                                        {
                                            OFFSET  -2.582190   0.000000   0.000000
                                        }
                                    }
                                }
                            }
                            JOINT RightFinger1
                            {
                                OFFSET  -8.364480   0.000000   3.252850
                                CHANNELS 3 Zrotation Xrotation Yrotation
                                JOINT RightFinger11
                                {
                                    OFFSET  -4.646930   0.000000   0.000000
                                    CHANNELS 3 Zrotation Xrotation Yrotation
                                    JOINT RightFinger12
                                    {
                                        OFFSET  -2.323470   0.000000   0.000000
                                        CHANNELS 3 Zrotation Xrotation Yrotation
                                        End Site
                                        {
                                            OFFSET  -2.273050   0.000000   0.000000
                                        }
                                    }
                                }
                            }
                            JOINT RightFinger2
                            {
                                OFFSET  -8.364480   0.000000   1.078090
                                CHANNELS 3 Zrotation Xrotation Yrotation
                                JOINT RightFinger21
                                {
                                    OFFSET  -5.111620   0.000000   0.000000
                                    CHANNELS 3 Zrotation Xrotation Yrotation
                                    JOINT RightFinger22
                                    {
                                        OFFSET  -2.788160   0.000000   0.000000
                                        CHANNELS 3 Zrotation Xrotation Yrotation
                                        End Site
                                        {
                                            OFFSET  -2.727660   0.000000   0.000000
                                        }
                                    }
                                }
                            }
                            JOINT RightFinger3
                            {
                                OFFSET  -7.899780   0.000000  -1.078090
                                CHANNELS 3 Zrotation Xrotation Yrotation
                                JOINT RightFinger31
                                {
                                    OFFSET  -4.646930   0.000000   0.000000
                                    CHANNELS 3 Zrotation Xrotation Yrotation
                                    JOINT RightFinger32
                                    {
                                        OFFSET  -2.323470   0.000000   0.000000
                                        CHANNELS 3 Zrotation Xrotation Yrotation
                                        End Site
                                        {
                                            OFFSET  -2.273050   0.000000   0.000000
                                        }
                                    }
                                }
                            }
                            JOINT RightFinger4
                            {
                                OFFSET  -7.435090   0.000000  -3.252850
                                CHANNELS 3 Zrotation Xrotation Yrotation
                                JOINT RightFinger41
                                {
                                    OFFSET  -3.717550   0.000000   0.000000
                                    CHANNELS 3 Zrotation Xrotation Yrotation
                                    JOINT RightFinger42
                                    {
                                        OFFSET  -1.858760   0.000000   0.000000
                                        CHANNELS 3 Zrotation Xrotation Yrotation
                                        End Site
                                        {
                                            OFFSET  -1.818440   0.000000   0.000000
                                        }
                                    }
                                }
                            }
                        }
                    }
                }
            }
        }
    }
    JOINT LeftHip
    {
        OFFSET   9.783030   0.000000   0.000000
        CHANNELS 3 Zrotation Xrotation Yrotation
        JOINT LeftKnee
        {
            OFFSET   0.000063 -41.789100   0.000608
            CHANNELS 3 Zrotation Xrotation Yrotation
            JOINT LeftAnkle
            {
                OFFSET   0.000048 -41.133200  -0.000184
                CHANNELS 3 Zrotation Xrotation Yrotation
                JOINT LeftToe
                {
                    OFFSET   0.000000  -6.358960  14.674500
                    CHANNELS 3 Zrotation Xrotation Yrotation
                    End Site
                    {
                        OFFSET   0.000000   0.000000   3.913200
                    }
                }
            }
        }
    }
    JOINT RightHip
    {
        OFFSET  -9.783030   0.000000   0.000000
        CHANNELS 3 Zrotation Xrotation Yrotation
        JOINT RightKnee
        {
            OFFSET   0.000071 -41.789100   0.001239
            CHANNELS 3 Zrotation Xrotation Yrotation
            JOINT RightAnkle
            {
                OFFSET   0.000037 -41.133200  -0.000166
                CHANNELS 3 Zrotation Xrotation Yrotation
                JOINT RightToe
                {
                    OFFSET   0.000000  -6.358960  14.674500
                    CHANNELS 3 Zrotation Xrotation Yrotation
                    End Site
                    {
                        OFFSET   0.000000   0.000000   3.913200
                    }
                }
            }
        }
    }
}
MOTION
Frames: 5
Frame Time:   0.016667
  0.606745  89.541500   0.248893  -3.741360  -6.668840  -7.749280   1.072420   4.889150   1.201110   2.052640   9.799010   2.322630   1.043780  -1.269030   0.029436   1.720790  -2.570650   2.894090  -5.385910  -2.225490   0.932975 -75.362200  19.705000  -0.328770  -1.372560  -3.624900 -20.576700  14.928400 -13.711100   7.031160  41.876600  35.361200 -66.924000 -29.188300   0.002885   0.006440  -9.594160   0.001826   0.001131 -26.288400   3.971110  -7.980560 -21.735400   0.002083   0.001136 -15.214800   0.001461  -0.004407 -28.115000  -0.120382   0.225329 -32.781600   0.004189   0.002458 -21.832500   0.001810   0.002798 -26.346700  -0.113332   0.228958 -26.346700   0.003202   0.005686 -17.546900   0.002096   0.000221 -27.572000  -0.118206   0.226480 -41.344200   0.002103  -0.001287 -27.544600  -0.015482   0.000000  10.415700   0.083586   7.782720  69.473600  14.928000  -6.020650  -1.728800  -6.424400  19.300300 -17.190000  -9.180240  -0.005113 -39.212500  37.091100  76.979300  29.731800  -0.002448  -0.004957   9.865910  -0.002027  -0.003310  43.242600   8.932200   9.374640  35.980800  -0.000204   0.000168  25.981800  -0.000096   0.001622  31.287700   0.618246   1.017170  46.939800   0.000366   0.000568  31.261900  -0.000767   0.000149  28.727600   0.269610   0.491965  39.556100  -0.001159   0.003623  26.344400   0.000174   0.008156  28.458700  -0.782666  -1.443670  42.703000  -0.010077  -0.002071  28.440200   0.002678   0.005640   1.758250  10.289700   5.386570   0.732655   0.429236   8.270920  -0.825031  -5.371960   3.953790   0.000000   0.000000  -0.000000   3.246160   8.630500  -4.362840  -0.168810   1.341510  -2.471200  -1.458500  -3.523180   3.125380   0.000000   0.000000   0.000000
  0.606790  89.541500   0.249029  -3.739440  -6.669090  -7.733310   1.072340   4.889640   1.200570   2.052520   9.800010   2.321520   1.044830  -1.269120   0.029441   1.721600  -2.570990   2.893830  -5.385860  -2.229350   0.934346 -75.359200  19.724400  -0.342178  -1.364720  -3.632030 -20.591400  14.933300 -13.710400   7.055580  41.875400  35.362300 -66.925900 -29.198100   0.002871   0.006457  -9.599100   0.001809   0.001137 -26.297000   3.961380  -7.958360 -21.741200   0.002091   0.001129 -15.218900   0.001468  -0.004407 -28.114900  -0.131224   0.245612 -32.781600   0.004236   0.002475 -21.832500   0.001834   0.002810 -26.346400  -0.123541   0.249568 -26.346500   0.003213   0.005687 -17.546800   0.002103   0.000243 -27.571900  -0.128870   0.246858 -41.350800   0.002109  -0.001274 -27.544600  -0.015498   0.000033  10.415700   0.083601   7.789310  69.469500  14.939900  -6.020990  -1.724930  -6.428590  19.287300 -17.170500  -9.125140  -0.051855 -39.224400  37.104200  76.978800  29.732600  -0.002446  -0.004951   9.866330  -0.002030  -0.003309  43.250700   8.945440   9.385660  35.989800  -0.000180   0.000170  25.990400  -0.000067   0.001630  31.296000   0.636485   1.046810  46.952600   0.000378   0.000560  31.270500  -0.000749   0.000142  28.727400   0.283007   0.516395  39.572300  -0.001142   0.003639  26.355200   0.000183   0.008152  28.475500  -0.754467  -1.390800  42.727400  -0.010074  -0.002080  28.456400   0.002678   0.005645   1.755320  10.320200   5.386320   0.732269   0.367649   8.263860  -0.821123  -5.334480   3.947780   0.000000   0.000000   0.000000   3.245850   8.628970  -4.362820  -0.168752   1.344980  -2.470760  -1.459140  -3.522840   3.114810   0.000000   0.000000   0.000000
  0.606887  89.541500   0.249164  -3.736510  -6.669470  -7.709290   1.072260   4.891280   1.199360   2.052440   9.803300   2.319060   1.047140  -1.269270   0.029445   1.723990  -2.571460   2.893480  -5.385720  -2.235870   0.938034 -75.355300  19.759600  -0.364548  -1.353880  -3.647070 -20.606300  14.938600 -13.709200   7.095050  41.873500  35.365100 -66.930500 -29.212800   0.002841   0.006497  -9.606410   0.001768   0.001142 -26.309500   3.947100  -7.925760 -21.749800   0.002111   0.001109 -15.224800   0.001483  -0.004406 -28.114800  -0.147179   0.275468 -32.781600   0.004349   0.002515 -21.832500   0.001899   0.002840 -26.346100  -0.138571   0.279901 -26.346400   0.003242   0.005691 -17.546700   0.002121   0.000302 -27.571800  -0.144562   0.276853 -41.358200   0.002127  -0.001243 -27.544600  -0.015542   0.000095  10.415600   0.083615   7.800500  69.462100  14.960600  -6.021580  -1.718400  -6.435850  19.264200 -17.137400  -9.046440  -0.098575 -39.245200  37.117400  76.978300  29.733500  -0.002444  -0.004937   9.866750  -0.002037  -0.003308  43.259500   8.966860   9.404610  35.998900  -0.000117   0.000179  25.998900   0.000000   0.001650  31.309700   0.664731   1.092660  46.974000   0.000408   0.000540  31.284700  -0.000705   0.000116  28.727000   0.303257   0.553324  39.598900  -0.001097   0.003680  26.372900   0.000207   0.008142  28.492900  -0.712383  -1.312230  42.751700  -0.010070  -0.002103  28.472600   0.002680   0.005657   1.752400  10.350600   5.384930   0.731886   0.306063   8.253480  -0.817488  -5.297020   3.938710  -0.000000   0.000000   0.000000   3.245440   8.626870  -4.362790  -0.168694   1.348450  -2.470310  -1.460080  -3.522040   3.099180   0.000000   0.000000  -0.000000
  0.607028  89.541400   0.248221  -3.735000  -6.672800  -7.694260   1.072310   4.894470   1.197770   2.052570   9.809600   2.315810   1.050120  -1.269400   0.029401   1.727930  -2.571670   2.893350  -5.385580  -2.241370   0.943558 -75.354500  19.794700  -0.382153  -1.350620  -3.666020 -20.604100  14.936100 -13.702500   7.124600  41.872000  35.371300 -66.939300 -29.222600   0.002808   0.006551  -9.610630   0.001709   0.001135 -26.316400   3.939880  -7.908970 -21.754800   0.002143   0.001074 -15.228300   0.001502  -0.004404 -28.114100  -0.155592   0.291226 -32.776100   0.004517   0.002576 -21.828800   0.002003   0.002886 -26.346100  -0.146516   0.295900 -26.346400   0.003289   0.005704 -17.546700   0.002153   0.000393 -27.571800  -0.152831   0.292682 -41.358700   0.002155  -0.001194 -27.544700  -0.015609   0.000159  10.415700   0.083552   7.809840  69.454800  14.979300  -6.021210  -1.711180  -6.443810  19.240700 -17.115400  -9.007170  -0.098229 -39.247700  37.106200  76.968700  29.718000  -0.002449  -0.004919   9.859030  -0.002049  -0.003308  43.256800   8.986320   9.425280  35.998800  -0.000020   0.000195  25.998800   0.000088   0.001682  31.323400   0.686521   1.127890  46.995200   0.000457   0.000509  31.298800  -0.000641   0.000060  28.726600   0.317270   0.578886  39.624500  -0.001030   0.003742  26.389900   0.000243   0.008127  28.488300  -0.685056  -1.262310  42.743600  -0.010064  -0.002138  28.467200   0.002687   0.005676   1.754270  10.329900   5.381520   0.732167   0.344818   8.247670  -0.820335  -5.311480   3.932340  -0.000000   0.000000  -0.000000   3.245140   8.626140  -4.361700  -0.168615   1.348320  -2.473250  -1.460630  -3.520850   3.089480  -0.000000   0.000000   0.000000
  0.607167  89.541300   0.246207  -3.734560  -6.678850  -7.685110   1.072390   4.898410   1.195810   2.052870   9.817410   2.311790   1.053840  -1.269480   0.029338   1.733450  -2.571730   2.893320  -5.385290  -2.246710   0.951498 -75.355400  19.833000  -0.400455  -1.349420  -3.687760 -20.593100  14.930000 -13.691200   7.151170  41.870800  35.376300 -66.944800 -29.227800   0.002762   0.006626  -9.613170   0.001634   0.001128 -26.320000   3.934700  -7.897410 -21.757100   0.002181   0.001028 -15.229900   0.001526  -0.004400 -28.112900  -0.161288   0.301909 -32.765700   0.004724   0.002651 -21.821900   0.002131   0.002943 -26.346300  -0.151907   0.306739 -26.346700   0.003347   0.005719 -17.546900   0.002192   0.000507 -27.572200  -0.158433   0.303408 -41.359300   0.002190  -0.001134 -27.545100  -0.015695   0.000234  10.416100   0.083490   7.819480  69.446100  14.998100  -6.020160  -1.707440  -6.448970  19.220000 -17.096300  -8.991490  -0.095880 -39.254800  37.095000  76.959100  29.701600  -0.002453  -0.004897   9.850810  -0.002066  -0.003308  43.253400   8.997600   9.438020  35.998100   0.000100   0.000215  25.998200   0.000197   0.001723  31.331600   0.698304   1.146910  47.008000   0.000516   0.000471  31.307300  -0.000561  -0.000000  28.726400   0.324430   0.591949  39.639600  -0.000948   0.003818  26.400000   0.000287   0.008107  28.474000  -0.671611  -1.238080  42.722000  -0.010055  -0.002183  28.452800   0.002696   0.005701   1.756400  10.309200   5.377730   0.732440   0.383573   8.244280  -0.823653  -5.325920   3.929020  -0.000000   0.000000   0.000000   3.244860   8.625990  -4.359980  -0.168452   1.347440  -2.479350  -1.460890  -3.519420   3.084860   0.000000   0.000000   0.000000
